<?xml version="1.0" encoding="utf-8"?>
<!-- Generator: Adobe Illustrator 16.0.0, SVG Export Plug-In . SVG Version: 6.00 Build 0)  -->
<!DOCTYPE svg PUBLIC "-//W3C//DTD SVG 1.1//EN" "http://www.w3.org/Graphics/SVG/1.1/DTD/svg11.dtd">
<svg version="1.1" id="Capa_1" xmlns="http://www.w3.org/2000/svg" xmlns:xlink="http://www.w3.org/1999/xlink" x="0px" y="0px"
	 width="1200px" height="1200px" viewBox="0 0 1200 1200" enable-background="new 0 0 1200 1200" xml:space="preserve">
<g>
	<path fill="#464666" d="M388.269,450.783c0,0-15.515,34.845,7.479,70.058C409.256,500.512,409.498,465.372,388.269,450.783z"/>
	<path fill="#464666" d="M450.179,433.174c-2.735-4.636-24.579-33.191-46.226-22.976l-1.667,0.634c0,0,10.384,38.157,60.393,38.855
		C462.687,437.375,452.907,437.806,450.179,433.174z"/>
	<path fill="#464666" d="M487.287,500.859c-5.35,2.06-8.058,7.978-6.044,13.222c2.014,5.232,7.981,7.821,13.332,5.774
		c5.363-2.06,8.07-7.978,6.065-13.21C498.627,501.383,492.659,498.808,487.287,500.859z"/>
	<path fill="#464666" d="M485.857,468.73c4.67-1.793,7.005-7.039,5.207-11.7c-1.789-4.674-7.029-7.017-11.695-5.22
		c-4.678,1.793-7.009,7.042-5.22,11.712C475.935,468.193,481.184,470.519,485.857,468.73z"/>
	<path fill="#464666" d="M563.406,492.479c5.236-2.004,7.858-7.893,5.837-13.129c-2.005-5.258-7.893-7.863-13.138-5.85
		c-5.236,2.005-7.851,7.889-5.846,13.138C552.281,491.879,558.17,494.489,563.406,492.479z"/>
	<path fill="#464666" d="M583.861,594.51c6.031-2.318,9.061-9.107,6.726-15.143c-2.311-6.032-9.094-9.064-15.127-6.747
		c-6.048,2.331-9.06,9.103-6.732,15.138C571.036,593.804,577.821,596.815,583.861,594.51z"/>
	<path fill="#464666" d="M655.641,475.535c5.362-2.06,8.045-8.053,5.98-13.417c-2.056-5.355-8.062-8.037-13.425-5.981
		c-5.355,2.068-8.036,8.07-5.981,13.43C644.279,474.922,650.286,477.604,655.641,475.535z"/>
	<path fill="#464666" d="M709.097,538.386c-2.141-5.584-8.418-8.375-13.992-6.231c-5.584,2.149-8.376,8.409-6.227,13.992
		c2.148,5.592,8.417,8.371,14.001,6.239C708.461,550.237,711.244,543.977,709.097,538.386z"/>
	<path fill="#464666" d="M545.945,416.784c-4.906,1.878-7.343,7.368-5.473,12.271c1.887,4.906,7.394,7.347,12.283,5.478
		c4.906-1.887,7.359-7.381,5.473-12.305C556.343,417.347,550.835,414.897,545.945,416.784z"/>
	<path fill="#464666" d="M432.529,518.569c-5.359,2.06-8.042,8.062-5.985,13.421c2.06,5.359,8.074,8.037,13.42,5.977
		c5.364-2.06,8.038-8.058,5.986-13.425C443.891,519.195,437.884,516.518,432.529,518.569z"/>
	<path fill="#464666" d="M510.035,336.787c5.803-2.225,8.713-8.751,6.48-14.554c-2.233-5.829-8.743-8.718-14.555-6.489
		c-5.816,2.233-8.723,8.751-6.494,14.571C497.693,336.118,504.228,339.033,510.035,336.787z"/>
	<path fill="#464666" d="M761.977,440.411c4.89-1.89,7.36-7.393,5.474-12.278c-1.887-4.916-7.386-7.36-12.292-5.474
		c-4.898,1.882-7.343,7.377-5.456,12.274C751.571,439.84,757.087,442.29,761.977,440.411z"/>
	<path fill="#464666" d="M868.423,346.24c4.467-1.722,6.683-6.717,4.982-11.184c-1.717-4.462-6.733-6.679-11.184-4.982
		c-4.466,1.721-6.683,6.721-4.974,11.183C858.957,345.724,863.965,347.949,868.423,346.24z"/>
	<path fill="#464666" d="M738.831,478.188c1.904-1.21,37.722-32.48,85.069-0.457c0,0,1.895,11.116,15.642,8.675
		c13.747-2.437,15.15-14.804,11.953-20.684c-3.206-5.875-12.791-13.573-25.133-5.042c-18.383-7.153-44.979-19.686-40.479-53.604
		c6.464-21.419,26.141-25.666,26.141-25.666l2.343-0.893c0.363,7.034,3.663,13.421,6.092,14.943
		c4.103,2.581,9.364,0.039,12.417-0.097c3.071-0.14-0.389,6.374-5.684,8.142c-5.287,1.785-7.039,10.752-0.288,17.511
		c6.742,6.742,24.574,7.939,24.271-2.322c-0.313-10.261,2.546-14.986,6.311-6.568c3.73,8.417,20.218,10.134,27.638-9.065
		c7.419-19.182,0.516-20.954-6.328-19.867c-6.844,1.07-13.771,0.617-5.777-5.571c8.002-6.192,7.215-17.042-4.619-22.871
		c-11.844-5.833-20.709-1.907-19.998,5.351c0.71,7.241-1.328,13.463-3.773,9.737c0,0-11.657-18.869-25.7-3.363
		c-1.082,1.193-1.937,2.491-2.622,3.832c-4.678-0.283-25.243,0.232-36.884,29.769c-9.001,20.988,4.653,54.099,37.188,64.817
		c-31.385-10.21-49.92-11.624-73.801,5.131C739.813,472.126,738.831,478.188,738.831,478.188z M847.866,381.047
		c4.01-1.531,8.484,0.469,10.024,4.466c1.54,3.989-0.466,8.473-4.466,10.004c-3.985,1.535-8.469-0.461-10-4.463
		C841.885,387.07,843.882,382.586,847.866,381.047z"/>
	<path fill="#464666" d="M798.614,415.261c-4.415,1.705-6.641,6.67-4.939,11.103c1.7,4.446,6.683,6.654,11.107,4.958
		c4.433-1.705,6.648-6.683,4.939-11.116C808.021,415.782,803.048,413.561,798.614,415.261z"/>
	<path fill="#464666" d="M578.87,298.994c5.363-2.056,8.028-8.066,5.972-13.413c-2.055-5.368-8.045-8.045-13.407-5.981
		c-5.372,2.06-8.046,8.062-5.981,13.417C567.509,298.372,573.523,301.049,578.87,298.994z"/>
	<path fill="#464666" d="M847.257,296.976c4.247-1.632,6.361-6.391,4.737-10.638c-1.624-4.242-6.396-6.357-10.642-4.733
		c-4.247,1.628-6.379,6.391-4.729,10.638C838.239,296.481,843.011,298.609,847.257,296.976z"/>
	<path fill="#464666" d="M775.029,305.503c4.746-1.818,7.114-7.139,5.296-11.894c-1.818-4.746-7.148-7.11-11.886-5.292
		c-4.746,1.823-7.114,7.148-5.287,11.894C764.963,304.962,770.283,307.322,775.029,305.503z"/>
	<path fill="#464666" d="M703.166,337.244c5.499-2.115,8.239-8.274,6.124-13.772c-2.105-5.495-8.264-8.24-13.771-6.133
		c-5.49,2.11-8.223,8.273-6.116,13.768C691.518,336.622,697.676,339.35,703.166,337.244z"/>
	<path fill="#464666" d="M648.543,267.931c5.489-2.103,8.239-8.274,6.125-13.769c-2.099-5.485-8.266-8.235-13.764-6.132
		c-5.499,2.119-8.248,8.273-6.134,13.768C636.885,267.3,643.044,270.049,648.543,267.931z"/>
	<path fill="#464666" d="M504.211,187.92c4.746-1.823,7.109-7.14,5.282-11.89c-1.823-4.75-7.14-7.11-11.877-5.296
		c-4.746,1.823-7.123,7.148-5.3,11.899C494.139,187.375,499.457,189.748,504.211,187.92z"/>
	<path fill="#464666" d="M380.427,200.677c3.506-1.345,5.244-5.266,3.908-8.769c-1.345-3.494-5.27-5.232-8.768-3.896
		c-3.498,1.341-5.237,5.27-3.893,8.76C373.012,200.267,376.95,202.022,380.427,200.677z"/>
	<path fill="#464666" d="M553.026,240.78c5.017-1.916,7.495-7.525,5.559-12.52c-1.896-4.987-7.496-7.487-12.504-5.575
		c-4.991,1.916-7.487,7.533-5.566,12.512C542.435,240.2,548.027,242.691,553.026,240.78z"/>
	<path fill="#464666" d="M730.329,183.619c2.115,5.502,8.282,8.24,13.756,6.133c5.489-2.115,8.231-8.282,6.133-13.776
		c-2.105-5.491-8.282-8.235-13.764-6.125C730.964,171.957,728.215,178.124,730.329,183.619z"/>
	<path fill="#464666" d="M139.297,295.597c-4.463,1.705-6.422,7.415-4.379,12.744c2.052,5.321,7.313,8.252,11.776,6.543
		c4.467-1.717,6.421-7.415,4.369-12.752C149.017,296.802,143.746,293.88,139.297,295.597z"/>
	<path fill="#464666" d="M231.843,217.135c4.573-1.768,6.854-6.89,5.105-11.454c-1.759-4.564-6.881-6.843-11.449-5.088
		c-4.572,1.747-6.852,6.878-5.102,11.438C222.17,216.602,227.275,218.878,231.843,217.135z"/>
	<path fill="#464666" d="M234.077,287.67c-5.008,1.912-7.504,7.529-5.583,12.538c1.92,5.003,7.523,7.495,12.528,5.566
		c5.003-1.916,7.512-7.521,5.591-12.524C244.686,288.237,239.072,285.746,234.077,287.67z"/>
	<path fill="#464666" d="M280.131,272.245c-3.931,1.514-5.876,5.905-4.378,9.809c1.497,3.921,5.884,5.879,9.804,4.378
		c3.918-1.506,5.872-5.897,4.37-9.817C288.429,272.71,284.038,270.752,280.131,272.245z"/>
	<path fill="#464666" d="M188.298,356.755c-4.787,1.823-7.178,7.199-5.338,11.996c1.831,4.771,7.208,7.157,11.987,5.334
		c4.78-1.849,7.173-7.208,5.343-11.996C198.449,357.292,193.086,354.907,188.298,356.755z"/>
	<path fill="#464666" d="M125.131,380.543c-4.995,1.925-7.503,7.529-5.583,12.533c1.925,5.012,7.537,7.503,12.537,5.579
		c5.003-1.912,7.495-7.529,5.583-12.528C135.752,381.123,130.144,378.623,125.131,380.543z"/>
	<path fill="#464666" d="M93.133,277.151c-2.014-5.22-7.863-7.813-13.082-5.816c-5.221,2.009-7.822,7.854-5.825,13.074
		c2.01,5.22,7.859,7.834,13.078,5.829C92.532,288.237,95.134,282.379,93.133,277.151z"/>
	<path fill="#464666" d="M239.339,353.198c-2.114-5.554-8.337-8.329-13.887-6.188c-5.54,2.127-8.319,8.354-6.184,13.903
		c2.119,5.537,8.341,8.303,13.887,6.171C238.712,364.957,241.47,358.744,239.339,353.198z"/>
	<path fill="#464666" d="M301.778,384.587c5.541-2.127,8.312-8.358,6.192-13.899c-2.141-5.553-8.362-8.32-13.903-6.192
		c-5.546,2.128-8.315,8.341-6.184,13.891C290.003,383.94,296.232,386.71,301.778,384.587z"/>
	<path fill="#464666" d="M303.102,427.447c1.748,4.56,6.866,6.848,11.442,5.093c4.572-1.747,6.849-6.869,5.097-11.433
		c-1.755-4.581-6.881-6.861-11.45-5.101C303.623,417.752,301.347,422.883,303.102,427.447z"/>
	<path fill="#464666" d="M341.584,487.683c-4.132,1.586-6.208,6.218-4.614,10.351c1.591,4.141,6.222,6.201,10.351,4.61
		c4.133-1.582,6.196-6.222,4.614-10.346C350.344,488.148,345.704,486.088,341.584,487.683z"/>
	<path fill="#464666" d="M660.717,147.835c1.911,5,7.521,7.503,12.544,5.583c4.983-1.916,7.479-7.529,5.575-12.529
		c-1.937-5-7.537-7.507-12.537-5.574C661.282,137.235,658.787,142.844,660.717,147.835z"/>
	<path fill="#464666" d="M157.684,197.247c4.817-1.844,7.225-7.262,5.371-12.08c-1.844-4.838-7.263-7.233-12.067-5.384
		c-4.838,1.844-7.246,7.267-5.394,12.089C147.447,196.697,152.853,199.108,157.684,197.247z"/>
	<path fill="#464666" d="M67.103,245.525c-0.182-0.114-0.283-0.19-0.283-0.19S66.87,245.449,67.103,245.525z"/>
	<path fill="#464666" d="M97.993,252.957c14.896-3.896,35.454-16.792,31.52-29.41c-0.406-1.286-20.713-8.899-41.1,8.037
		C72.03,245.191,68.047,245.8,67.103,245.525C69.26,246.989,84.2,256.574,97.993,252.957z"/>
	<path fill="#464666" d="M320.757,349.171c5.478-2.094,8.22-8.244,6.117-13.721c-2.11-5.482-8.262-8.227-13.734-6.121
		c-5.482,2.111-8.231,8.248-6.12,13.734C309.126,348.541,315.271,351.278,320.757,349.171z"/>
	<path fill="#464666" d="M230.723,124.364c3.274-1.256,4.911-4.919,3.663-8.193c-1.27-3.269-4.936-4.906-8.211-3.641
		c-3.265,1.248-4.896,4.915-3.632,8.192C223.786,123.983,227.457,125.62,230.723,124.364z"/>
	<path fill="#464666" d="M992.854,261.324c4.627-1.772,6.919-6.954,5.151-11.581c-1.776-4.619-6.963-6.933-11.573-5.152
		c-4.627,1.772-6.928,6.962-5.159,11.581C983.049,260.786,988.218,263.1,992.854,261.324z"/>
	<path fill="#464666" d="M1019.788,261.873c-4.999,1.925-7.486,7.525-5.565,12.52c1.911,4.996,7.513,7.487,12.503,5.571
		c5-1.912,7.486-7.521,5.574-12.52C1030.389,262.453,1024.779,259.961,1019.788,261.873z"/>
	<path fill="#464666" d="M134.407,181.136c9.542-3.663,13.992-15.164,9.947-25.688c-4.034-10.532-15.041-16.094-24.57-12.431
		c-9.533,3.667-14.004,15.168-9.965,25.679C113.867,179.229,124.869,184.794,134.407,181.136z"/>
	<path fill="#464666" d="M100.891,183.978c5.367-2.06,8.057-8.083,5.984-13.459c-2.052-5.376-8.088-8.049-13.454-5.985
		c-5.376,2.047-8.054,8.083-5.998,13.455C89.487,183.361,95.519,186.042,100.891,183.978z"/>
	<path fill="#464666" d="M211.922,269.969c-10.846-9.39-26.44-2.961-23.911,6.006c-8.143,11.717-15.325,9.496-21.538,10.981
		c-6.209,1.48-9.082,5.752-6.451,7.905c2.628,2.161,10.267,5.541,17.102,3.367c6.856-2.169,7.978-15.718,13.891-17.98
		c4.78,11.277,12.406,8.798,12.406,8.798s-0.424,2.416-6.387,9.229c-5.973,6.81-11.949,7.753-17.96,28.576
		c-15.413,49.302,5.926,69.563,4.018,65.781c-13.971-70.543,24.262-87.479,31.537-103.823
		C221.903,272.452,211.922,269.969,211.922,269.969z"/>
	<path fill="#464666" d="M732.394,828.556c-14.585-21.221-49.733-20.979-70.054-7.479
		C697.558,844.07,732.394,828.556,732.394,828.556z"/>
	<path fill="#464666" d="M750.006,766.641c-4.636-2.729-4.204-12.504-16.521-12.494c0.701,50.003,38.854,60.392,38.854,60.392
		l0.643-1.666C783.192,791.224,754.642,769.381,750.006,766.641z"/>
	<path fill="#464666" d="M676.536,716.184c-5.229-2.005-11.159,0.697-13.206,6.065c-2.064,5.354,0.533,11.318,5.77,13.332
		c5.244,2.013,11.157-0.693,13.223-6.04C684.368,724.17,681.798,718.206,676.536,716.184z"/>
	<path fill="#464666" d="M714.451,730.971c-1.802,4.669,0.541,9.919,5.202,11.703c4.67,1.789,9.932-0.536,11.717-5.21
		c1.793-4.67-0.55-9.915-5.22-11.704C721.481,723.966,716.235,726.296,714.451,730.971z"/>
	<path fill="#464666" d="M696.551,666.556c5.245,2.005,11.115-0.601,13.129-5.845c2.014-5.25-0.601-11.129-5.845-13.13
		c-5.254-2.022-11.125,0.597-13.139,5.828C688.691,658.654,691.306,664.542,696.551,666.556z"/>
	<path fill="#464666" d="M595.408,648.093c6.049,2.327,12.825-0.681,15.151-6.729c2.318-6.04-0.719-12.816-6.742-15.135
		c-6.049-2.321-12.833,0.689-15.135,6.73C586.356,638.998,589.377,645.775,595.408,648.093z"/>
	<path fill="#464666" d="M734.466,570.688c6.192,2.381,13.138-0.715,15.523-6.908c2.368-6.205-0.719-13.15-6.911-15.523
		c-6.201-2.373-13.138,0.706-15.516,6.907C725.17,561.357,728.273,568.311,734.466,570.688z"/>
	<path fill="#464666" d="M748.645,664.064c-1.869,4.894,0.566,10.401,5.481,12.274c4.898,1.882,10.389-0.559,12.267-5.465
		c1.878-4.894-0.559-10.396-5.448-12.282C756.021,656.717,750.539,659.158,748.645,664.064z"/>
	<path fill="#464666" d="M658.635,770.883c-5.363-2.06-11.369,0.612-13.434,5.977c-2.047,5.347,0.626,11.361,5.989,13.417
		c5.354,2.056,11.361-0.614,13.417-5.981C666.655,778.94,663.981,772.935,658.635,770.883z"/>
	<path fill="#464666" d="M846.386,706.784c-2.233,5.813,0.668,12.348,6.472,14.572c5.829,2.233,12.342-0.676,14.575-6.496
		c2.233-5.809-0.66-12.322-6.487-14.555C855.133,698.071,848.619,700.981,846.386,706.784z"/>
	<path fill="#464666" d="M890.164,651.366c5.354,2.06,11.353-0.612,13.416-5.977c2.056-5.354-0.626-11.361-5.981-13.408
		c-5.354-2.068-11.352,0.604-13.425,5.973C882.127,643.301,884.801,649.307,890.164,651.366z"/>
	<path fill="#464666" d="M805.019,509.53c2.106-16.738-17.224-30.277-31.63-25.197c-9.661,3.413-12.8,10.587-13.772,15.248
		c-5.329,2.289-7.943,8.379-5.845,13.836c2.131,5.579,8.408,8.375,13.999,6.23c5.575-2.14,8.376-8.417,6.227-13.992
		c-1.455-3.828-4.855-6.332-8.645-6.856c3.729-5.004,10.938-11.619,21.749-8.362c16.589,4.996,13.653,33.124-2.953,40.445
		c-16.614,7.309-50.3-1.531-51.172-27.24c0.542-3.532-3.273-7.271-5.557-2.136c-0.821,1.802-3.9,31.8,36.757,36.566
		c9.762,0.373,18.568-1.688,25.564-5.888c3.366,5.494,4.509,11.382,4.5,15.583c-8.73,4.226-8.062,17.27,3.942,18.095
		c12.013,0.812,16.31-14.115,4.914-18.958c0.618-8.514-2.208-15.1-6.463-20.222c2.783-2.915,4.999-6.349,6.557-10.283
		c2.732,1.1,5.49,2.322,8.239,3.866c74.529,39.028,67.372,108.282,59.911,121.517c-11.438-7.229-15.854,0.537-16.539,3.599
		c-0.694,3.042-2.444,7.576,9.313,13.98c-13.002,21.542-39.615,21.753-53.1,13.721c4.103-6.949-3.055-19.169-12.579-12.884
		c-9.518,6.307-4.307,14.927,3.121,17.778c6.658,7.3,23.061,16.424,47.306,6.328c-15.515,18.191-40.267,27.162-74.774,19.587
		c-34.515-7.567-45.858-44.599-43.067-72.883c1.972-19.838,20.024-34.215,34.296-42.061c-0.813,0.893-1.591,1.933-2.31,3.198
		c-9.712,16.64,12.486,30.356,12.486,30.356s-19.957,17.457,2.622,28.967c22.579,11.5,24.465-11.933,24.465-11.933
		s9.289,23.928,27.469,8.653c18.179-15.286-1.455-27.083-1.455-27.083s26.317-3.167,17.824-22.988
		c-8.477-19.838-25.083-8.692-25.962-7.601c-0.89,1.078,3.442-23.784-18.713-22.824c-22.155,0.981-10.998,23.716-10.998,23.716
		s-8.146-7.161-16.437-6.831c2.242-0.943,4.179-1.628,5.625-2.047c10.634-3.024,3.08-9.225,3.08-9.225s-42.729,3.955-55.621,38.787
		c-12.901,34.823-6.582,87.458,42.314,101.962c48.896,14.521,90.745-16.779,106.624-55.672
		c15.878-38.901,7.207-82.958-13.747-108.527C847.57,531.546,832.732,517.71,805.019,509.53z M790.197,605.19
		c2.318-6.049,9.094-9.073,15.134-6.738c6.032,2.31,9.061,9.085,6.742,15.134c-2.326,6.041-9.103,9.057-15.143,6.738
		C790.892,618.007,787.88,611.222,790.197,605.19z"/>
	<path fill="#464666" d="M650.751,738.956c0,0,4.89,9.463,25.759,34.05c37.586,45.212,103.85,62.589,138.702,65.554
		c34.862,2.96,82.083-20.109,105.406-31.521c-15.608,11.053-28.72,25.442-39.489,47.353c-10.777,21.91-4.83,36.028-2.741,33.052
		c7.885-29.177,37.747-48.985,56.713-60.16c31.005-20.307,23.873-42.463,20.007-49.628c-3.875-7.178-22.62-20.058-41.46-5.507
		c-27.097,17.553-45.715,1.877-51.874-4.276c-6.167-6.149-11.624-9.191-11.268-1.48c6.031,49.679,60.358,24.114,60.358,24.114
		c-20.38,17.278-36.739,20.459-51.442,20.506c-30.539,0.593-52.161-25.722-52.754-37.771c22.654-5.978,16.81-31.444,0.042-32.189
		c-16.758-0.739-26.994,18.522-10.903,30.856c3.189,16.378,15.016,33.712,54.03,46.803c-34.819,11.729-85.66-0.216-103.079-7.843
		c-20.784-11.294-31.063-37.5-36.917-50.646c-5.846-13.129-1.489-29.456-1.362-44.564c0.118-15.109-10.489-22.029-24.245-36.773
		c-13.746-14.749-32.806-20.638-50.072-22.536c0.99-28.514,3.917-31.174,26.614-34.773c22.688-3.612,33.246-17.558,30.886-39.777
		c-35.742-1.874-45.597,21.339-45.597,21.339s1.167-16.602,8.011-25.806c0.643-0.863,1.21-1.65,1.76-2.416
		c9.153,2.005,18.788,3.041,28.069,2.022c-9.027-23.526-37.722-32.886-65.563-26.458c40.361-14.542,42.713-18.293,44.54-24.659
		c22.807,0.233,27.138-9.479,28.178-20.303c13.713,6.108,31.495-3.1,38.297-13.75c6.802-10.667,4.467-19.237-0.99-28.508
		c-3.934-6.701-7.173-35.378-0.761-64.546c6.573-12.461,17.968-31.097,52.602-36.059c0.051,0.939,0.245,1.883,0.593,2.813
		c1.844,4.771,7.207,7.169,11.995,5.346c4.787-1.844,7.173-7.229,5.329-12.003c-1.818-4.793-7.199-7.187-11.987-5.342
		c-2.504,0.956-4.348,2.91-5.278,5.232c-8.756,0.271-38.39,3.553-51.916,34.498c2.461-9.382,5.989-18.67,10.871-27.164
		c21.047-36.486,75.407-66.352,119.557-46.363c38.618,17.49,76.28,73.099,27.146,121.009c0.17-1.379,0.026-2.834-0.516-4.217
		c-1.717-4.5-6.767-6.746-11.259-5.021c-4.501,1.726-6.734,6.768-5.008,11.264c1.311,3.464,4.645,5.592,8.154,5.583
		c-5.236,4.187-11.2,8.298-17.951,12.292c-4.271,1.176-0.922,7.457,3.79,6.129c4.679-1.329,38.457-14.292,53.431-49.302
		c7.359,5.283,17.858,5.909,21.42-5.08c5.21-16.01-4.011-22.854-14.331-20.662c-0.88,0.194-1.87,0.453-2.868,0.732
		c-1.311-31.512-24.017-66.754-53.946-80.069c0,0-23.264-16.184-66.999-5.545c15.21-19.584,22.52-37.535,24.728-47.86
		c2.182-10.312-4.653-19.524-20.658-14.322c-15.997,5.19-7.42,25.095,4.365,28.635c-2.995,14.415-15.354,29.101-24.313,35.374
		c-8.958,6.277-66.221,37.26-70.256,109.377c-4.882-55.905-21.758-76.419-47.34-97.398c-25.556-20.958-69.622-29.621-108.519-13.739
		c-38.889,15.879-70.185,57.724-55.676,106.624c14.512,48.892,67.139,55.202,101.957,42.302
		c34.846-12.884,38.805-55.613,38.805-55.613s-6.218-7.559-9.255,3.079c-0.406,1.451-1.083,3.375-2.03,5.625
		c0.338-8.282-6.835-16.433-6.835-16.433s22.73,11.154,23.721-11.001c0.955-22.156-23.907-17.824-22.824-18.712
		c1.091-0.884,12.241-17.482-7.597-25.962c-19.838-8.493-22.993,17.816-22.993,17.816s-11.802-19.63-27.088-1.442
		c-15.27,18.175,8.655,27.464,8.655,27.464s-23.417,1.886-11.929,24.465c11.522,22.583,28.966,2.623,28.966,2.623
		s13.721,22.198,30.361,12.49c1.252-0.723,2.301-1.506,3.197-2.317c-7.851,14.275-22.231,32.328-42.052,34.307
		c-28.297,2.796-65.333-8.557-72.896-43.063c-7.571-34.51,1.404-59.271,19.593-74.786c-10.109,24.249-0.981,40.644,6.327,47.302
		c2.843,7.44,11.472,12.643,17.765,3.13c6.295-9.525-5.921-16.687-12.884-12.579c-8.027-13.497-7.808-40.099,13.73-53.101
		c6.403,11.754,10.93,10.012,13.976,9.305c3.063-0.685,10.828-5.097,3.604-16.534c13.238-7.457,82.489-14.609,121.521,59.919
		c11.843,21.018,9.651,43.656,9.651,43.656s-7.292-37.463-36.291-35.323c-4.855-11.403-19.778-7.106-18.975,4.902
		c0.837,12.004,13.882,12.681,18.103,3.946c9.94-0.021,29.397,6.248,30.48,33.762c-5.55,10.202-1.116,34.075,12.461,25.07
		c2.41,9.969,1.107,21.348-3.875,19.482c-4.982-1.886-8.907-20.742-23.213-8.611c-14.271,12.105-6.42,25.188-1.354,32.239
		c-15.48-8.27-36.688,5.562-25.606,28.301c-5.262,1.07-9.229,3.066-18.45,9.927c-9.196,6.84-25.802,8.007-25.802,8.007
		s23.204-9.852,21.327-45.597c-22.216-2.364-36.165,8.193-39.761,30.89c-3.611,22.693-6.269,25.62-34.785,26.609
		c-1.903-17.262-7.783-36.317-22.528-50.08c-14.753-13.747-21.665-24.355-36.773-24.245c-15.096,0.127-31.435,4.492-44.564-1.354
		c-13.146-5.854-39.354-16.149-50.647-36.921c-7.631-17.427-19.571-68.256-7.842-103.075c13.091,39.024,30.421,50.846,46.802,54.027
		c12.335,16.107,31.605,5.858,30.853-10.896c-0.744-16.767-26.199-22.621-32.192,0.038c-12.047-0.583-38.355-22.215-37.763-52.75
		c0.046-14.702,3.227-31.067,20.505-51.442c0,0-25.569,54.328,24.114,60.35c7.711,0.36,4.666-5.101-1.48-11.264
		c-6.154-6.163-21.83-24.765-4.276-51.861c14.546-18.852,1.666-37.594-5.507-41.469c-7.17-3.875-29.325-11.001-49.624,20.007
		c-11.184,18.962-30.979,48.82-60.16,56.708c-2.981,2.086,11.138,8.037,33.048-2.728c21.918-10.791,36.299-23.898,47.352-39.502
		c-11.411,23.318-34.485,70.548-31.516,105.401c2.952,34.857,20.333,101.116,65.553,138.707
		c24.588,20.861,34.054,25.755,34.054,25.755s-39.696,13.818-24.782,50.233c8.096,21.055,35.162,28.66,40.754,28.406
		c5.575-0.244,43.309,8,65.447-54.018c20.539-0.783,42.104-3.841,43.651-3.494c1.564,0.342,6.852,3.054,6.852,3.054
		s14.543,8.823,33.652,14.96c-5.254,13.789-16.302,49.353-17.316,85.958c-62.025,22.143-53.77,59.889-54.022,65.463
		c-0.254,5.584,7.351,32.653,28.415,40.736C636.937,778.645,650.751,738.956,650.751,738.956z M611.643,392.979
		c-6.049,2.318-12.834-0.698-15.151-6.729c-2.31-6.049,0.711-12.825,6.742-15.151c6.049-2.318,12.824,0.706,15.135,6.747
		C620.702,383.885,617.674,390.652,611.643,392.979z M415.538,456.421c34.477,29.388,59.246,26.039,78.326,23.924
		c19.063-2.111,23.768,8.866,39.113,20.506c15.37,11.632,19.321,34.261,18.856,49.112
		C456.085,533.673,415.538,456.421,415.538,456.421z M511.465,601.455c-21.204,5.397-51.519-3.434-54.543-33.525
		c-1.384-24.571,25.031-28.559,25.031-28.559s16.365,9.348,21.195,10.812c4.83,1.467,14.433,12.93,6.21,19.875
		c-8.224,6.954-29.296,11.255-29.228-5.828c-0.317-6.984-5.516-4.505-2.864,4.889c2.665,9.407,11.315,18.382,40.188,3.515
		c6.337,16.517,14.457,10.545,19.067,4.048c4.61-6.505-2.851-19.745-17.477-12.232c-3.004-7.846-5.635-13.476-5.635-13.476
		s23.027,8.223,38.804,7.377C553.609,558.265,540.802,593.99,511.465,601.455z M682.33,683.843
		c11.632,15.35,22.612,20.049,20.506,39.125c-2.115,19.072-5.473,43.838,23.924,78.314c0,0-77.261-40.538-93.546-136.292
		C648.069,664.525,670.698,668.48,682.33,683.843z M615.246,759.902c-30.091-3.028-38.922-33.339-33.517-54.543
		c7.452-29.329,43.177-42.153,43.102-40.754c-0.838,15.772,7.368,38.805,7.368,38.805s-5.626-2.628-13.468-5.622
		c7.512-14.648-5.727-22.097-12.241-17.486c-6.497,4.61-12.469,12.732,4.052,19.068c-14.871,28.872-5.879,37.526,3.521,40.183
		c9.389,2.661,11.868-2.538,4.881-2.855c-17.071,0.067-12.774-21.004-5.82-29.235c6.937-8.223,18.399,1.392,19.871,6.213
		c1.473,4.826,10.812,21.2,10.812,21.2S639.813,761.28,615.246,759.902z"/>
	<path fill="#464666" d="M850.049,498.397c-5.118-1.967-10.854,0.592-12.825,5.707c-1.954,5.113,0.593,10.849,5.719,12.816
		c5.118,1.963,10.854-0.592,12.808-5.697C857.722,506.104,855.166,500.364,850.049,498.397z"/>
	<path fill="#464666" d="M935.144,575.924c2.106-5.502-0.636-11.674-6.134-13.776c-5.49-2.111-11.657,0.638-13.763,6.133
		c-2.124,5.499,0.625,11.657,6.132,13.768C926.869,584.16,933.037,581.411,935.144,575.924z"/>
	<path fill="#464666" d="M1012.438,719.207c1.818-4.741-0.542-10.058-5.296-11.881c-4.737-1.818-10.058,0.538-11.886,5.296
		c-1.818,4.741,0.55,10.067,5.287,11.89C1005.298,726.33,1010.619,723.944,1012.438,719.207z"/>
	<path fill="#464666" d="M995.163,841.254c1.337-3.503-0.397-7.42-3.891-8.765c-3.503-1.333-7.428,0.401-8.773,3.904
		c-1.346,3.489,0.415,7.414,3.909,8.765C989.893,846.493,993.826,844.747,995.163,841.254z"/>
	<path fill="#464666" d="M960.487,670.734c1.921-5-0.574-10.596-5.574-12.508c-4.992-1.924-10.6,0.559-12.512,5.571
		c-1.929,4.995,0.575,10.591,5.574,12.503C952.967,678.226,958.576,675.73,960.487,670.734z"/>
	<path fill="#464666" d="M993.42,472.735c-2.098,5.478,0.644,11.648,6.143,13.755c5.473,2.124,11.656-0.621,13.755-6.12
		c2.114-5.495-0.626-11.666-6.116-13.768C1001.703,464.496,995.535,467.241,993.42,472.735z"/>
	<path fill="#464666" d="M868.279,1070.129c-1.692,4.467,1.234,9.725,6.556,11.776c5.338,2.043,11.048,0.089,12.748-4.378
		c1.718-4.445-1.2-9.72-6.53-11.763C875.707,1063.705,870.014,1065.659,868.279,1070.129z"/>
	<path fill="#464666" d="M982.584,991.325c1.768-4.564-0.516-9.695-5.093-11.45c-4.56-1.747-9.694,0.528-11.454,5.105
		c-1.743,4.567,0.541,9.669,5.118,11.445C975.706,998.182,980.841,995.893,982.584,991.325z"/>
	<path fill="#464666" d="M895.519,982.747c1.903-4.999-0.583-10.616-5.575-12.537c-5.024-1.925-10.634,0.588-12.536,5.592
		c-1.938,4.999,0.558,10.608,5.574,12.529C887.98,990.255,893.59,987.755,895.519,982.747z"/>
	<path fill="#464666" d="M910.923,936.698c1.506-3.913-0.456-8.303-4.356-9.801c-3.925-1.506-8.315,0.444-9.821,4.369
		c-1.506,3.921,0.456,8.304,4.383,9.809C905.027,942.569,909.418,940.627,910.923,936.698z"/>
	<path fill="#464666" d="M826.421,1028.521c1.853-4.784-0.541-10.147-5.338-11.991c-4.779-1.827-10.143,0.566-11.986,5.346
		c-1.828,4.788,0.558,10.156,5.337,11.987C819.222,1035.703,824.603,1033.311,826.421,1028.521z"/>
	<path fill="#464666" d="M784.521,1084.738c-1.92,4.997,0.576,10.605,5.575,12.534c5.009,1.92,10.616-0.584,12.537-5.583
		c1.929-5.008-0.566-10.617-5.583-12.533C792.05,1077.245,786.45,1079.727,784.521,1084.738z"/>
	<path fill="#464666" d="M906.024,1123.691c-5.236-2.001-11.089,0.601-13.086,5.828c-2.005,5.22,0.608,11.069,5.829,13.073
		c5.21,2.006,11.057-0.6,13.077-5.818C913.842,1131.555,911.236,1125.704,906.024,1123.691z"/>
	<path fill="#464666" d="M816.084,983.669c-2.124,5.546,0.643,11.768,6.192,13.895c5.541,2.128,11.768-0.646,13.891-6.192
		c2.131-5.545-0.627-11.771-6.193-13.89C824.425,975.354,818.216,978.116,816.084,983.669z"/>
	<path fill="#464666" d="M804.79,928.94c5.549,2.136,11.768-0.639,13.891-6.184c2.132-5.542-0.643-11.764-6.192-13.899
		c-5.532-2.124-11.768,0.647-13.89,6.188C796.466,920.591,799.241,926.822,804.79,928.94z"/>
	<path fill="#464666" d="M755.726,913.722c4.567,1.755,9.693-0.521,11.453-5.08c1.743-4.576-0.523-9.703-5.108-11.459
		c-4.561-1.755-9.687,0.529-11.438,5.097C748.873,906.86,751.165,911.975,755.726,913.722z"/>
	<path fill="#464666" d="M680.528,869.503c-1.582,4.13,0.474,8.761,4.618,10.359c4.138,1.586,8.757-0.491,10.347-4.623
		c1.6-4.115-0.466-8.76-4.61-10.347C686.746,863.302,682.11,865.362,680.528,869.503z"/>
	<path fill="#464666" d="M1029.755,543.575c-1.922,5.004,0.591,10.608,5.582,12.533c5,1.924,10.601-0.571,12.521-5.584
		c1.938-5-0.575-10.608-5.574-12.528C1037.292,536.072,1031.683,538.58,1029.755,543.575z"/>
	<path fill="#464666" d="M1003.395,1065.841c1.845-4.806-0.55-10.224-5.389-12.067c-4.822-1.856-10.228,0.55-12.081,5.367
		c-1.853,4.83,0.567,10.236,5.381,12.089C996.136,1073.082,1001.542,1070.671,1003.395,1065.841z"/>
	<path fill="#464666" d="M937.85,1150c0,0-0.075-0.097-0.202-0.279C937.723,1149.958,937.85,1150,937.85,1150z"/>
	<path fill="#464666" d="M959.634,1087.311c-12.622-3.934-25.515,16.62-29.414,31.524c-3.621,13.789,5.973,28.729,7.428,30.886
		c-0.271-0.942,0.338-4.931,13.941-21.31C968.532,1108.023,960.919,1087.708,959.634,1087.311z"/>
	<path fill="#464666" d="M840.117,909.8c5.481,2.115,11.623-0.638,13.738-6.115c2.106-5.465-0.644-11.623-6.124-13.734
		c-5.482-2.102-11.633,0.639-13.73,6.111C831.903,901.549,834.636,907.698,840.117,909.8z"/>
	<path fill="#464666" d="M1067.01,982.442c-3.273-1.252-6.937,0.385-8.188,3.654c-1.27,3.266,0.363,6.938,3.638,8.182
		c3.273,1.265,6.945-0.365,8.181-3.639C1071.908,987.375,1070.274,983.711,1067.01,982.442z"/>
	<path fill="#464666" d="M1027.724,1072.47c-10.506-4.045-22.021,0.408-25.674,9.951c-3.672,9.529,1.903,20.536,12.427,24.584
		c10.515,4.039,22.012-0.432,25.683-9.97C1043.813,1087.505,1038.256,1076.508,1027.724,1072.47z"/>
	<path fill="#464666" d="M1012.649,1109.944c-5.355-2.068-11.387,0.622-13.459,5.99c-2.057,5.371,0.626,11.398,5.997,13.463
		c5.363,2.059,11.404-0.613,13.451-5.998C1020.711,1118.04,1018.029,1111.996,1012.649,1109.944z"/>
	<path fill="#464666" d="M896.221,1050.351c1.48-6.213-0.736-13.396,10.973-21.537c8.967,2.529,15.421-13.07,6.022-23.911
		c0,0-2.487-9.986-18.839-2.711c-16.353,7.275-33.289,45.517-103.832,31.545c-3.782-1.911,16.487,19.428,65.781,4.007
		c20.827-6.006,21.773-11.971,28.576-17.948c6.81-5.964,9.229-6.395,9.229-6.395s-2.479,7.63,8.797,12.41
		c-2.267,5.909-15.802,7.034-17.993,13.886c-2.165,6.84,1.218,14.479,3.376,17.105
		C890.469,1059.428,894.74,1056.562,896.221,1050.351z"/>
	<path fill="#464666" d="M1071.934,863.456c-5.229-27.503-31.834-34.084-31.834-34.084s14.044,1.354,15.499-15.088
		c1.455-16.44-13.595-19.39-13.595-19.39s0.474-5.485,0.067-9.686c-0.406-4.209-4.246-27.942-8.383-47.745
		c2.749,5.507,15.201,23.651,22.324,30.42c7.106,6.78,31.443,16.115,31.495,14.932c0.059-1.185-3.131-28.729-20.963-39.21
		c-17.842-10.495-34.236-9.906-34.955-15.438c-0.711-5.537-8.713-51.112-12.461-63.481c-3.765-12.359-11.167-15.201-7.479-17.438
		c3.681-2.226,20.507-3.866,25.784-7.11c12.165-4.23,24.339-16.966,28.983-30.146c8.323-22.714,7.259-57.936-19.263-53.139
		c-26.521,4.788-16.504,29.287-13.568,33.242c2.935,3.963,7.681,7.407,7.639,19.123c-0.051,11.725-11.759,16.936-21.919,13.857
		c-10.151-3.084-13.976-16.298-9.161-27.815c4.83-11.501,3.663-20.041,3.663-20.041c-2.319-20.329-20.828-18.514-20.828-18.514
		l-6.175-65.117c0,0,9.11,29.003,31.249,36.702c17.155,5.956,39.032-2.314,48.008-6.336c2.555,4.847,6.802,8.819,12.309,10.913
		c12.063,4.636,25.616-1.387,30.259-13.454c2.564-6.713,1.836-13.874-1.369-19.711c0.752,0.566,1.59,1.049,2.513,1.396
		c5.438,2.09,11.538-0.63,13.627-6.074c2.081-5.431-0.634-11.539-6.065-13.62c-5.438-2.089-11.547,0.63-13.627,6.07
		c-0.948,2.437-0.905,5.008-0.094,7.284c-2.292-2.39-5.152-4.327-8.468-5.591c-12.063-4.641-25.607,1.391-30.234,13.467
		c-1.32,3.409-1.769,6.95-1.48,10.372c-0.118,0.067-0.212,0.118-0.33,0.194c-50.461,34.456-68.666-18.264-70.866-25.192
		c-2.207-6.916-5.389-8.125-6.445-8.536c-1.049-0.406,1.709-53.984,1.615-65.35c11.412-6.56,15.084-24.566,13.273-29.316
		c-1.818-4.737,0.651-9.068,2.725-7.051c2.055,2,4.905,10.38,2.479,21.99c-2.454,11.624-3.461,23.78-3.486,32.265
		c-0.017,8.498,7.656,10.625,18.23-1.1c6.48,31.622,42.603,45.093,59.471,31.736c16.86-13.366,16.132-24.152,11.42-25.564
		c-1.971,4.094-12.215,19.19-35.572,14.677c-23.373-4.513-28.009-34.629-25.996-57.741c1.972-23.133-13.78-45.347-28.524-46.967
		c17.756-19.909,8.265-30.022-4.771-40.293c4.137,0.791,7.935-3.819,8.23-7.761c0.203-2.58,0.161-16.94,1.532-29.896
		c2.072-2.893,4.034-5.968,5.853-9.275c13.096-22.828,15.49-38.737,15.49-38.737s2.038,27.151,20.573,29.346
		c10.084,1.354,18.383-3.02,18.722-16.91c0.109-8.138-8.258-11.42-13.088-7.136c-4.821,4.276-6.116,13.294,4.112,14.639
		c1.564,3.033-5.102,6.835-12.639-0.461c0,0-22.046-28.733-9.483-74.029c9.313,26.376,23.391,38.774,39.117,42.873
		c-12.935-16.898-30.015-79.634-21.58-105.846c-15.659,17.985-61.011,27.76-73.421,24.934c-2.884-0.66-2.943,3.951,2.546,8.73
		c5.482,4.779,19.306,9.187,16.412,16.377c-2.919,7.187-15.87,14.584-37.416,19.614c-21.538,5.029-39.854,4.771-43.787,5.08
		c-3.942,0.283-8.553,4.082-7.749,8.231c-10.277-13.044-20.396-22.536-40.301-4.78c-1.633-14.745-23.848-30.492-46.967-28.513
		c-23.112,1.997-53.236-2.635-57.745-26c-4.518-23.361,10.583-33.602,14.678-35.577c-1.414-4.716-12.208-5.443-25.558,11.433
		c-13.365,16.852,0.103,52.982,31.725,59.458c-11.717,10.579-9.585,18.251-1.101,18.239c8.485-0.034,20.642-1.045,32.272-3.49
		c11.599-2.432,19.982,0.418,21.979,2.479c2.021,2.064-2.301,4.543-7.047,2.72c-4.746-1.814-22.756,1.861-29.313,13.269
		c-11.36-0.089-64.943,2.669-65.35,1.616c-0.414-1.049-1.616-4.239-8.535-6.438c-6.928-2.204-59.647-20.409-25.192-70.87
		c0.067-0.123,0.126-0.216,0.203-0.33c3.418,0.283,6.953-0.157,10.371-1.472c12.071-4.636,18.111-18.184,13.459-30.247
		c-1.27-3.312-3.206-6.158-5.592-8.463c2.275,0.808,4.847,0.846,7.284-0.089c5.439-2.085,8.154-8.192,6.065-13.624
		c-2.081-5.44-8.189-8.155-13.62-6.07c-5.439,2.089-8.146,8.18-6.066,13.62c0.348,0.926,0.83,1.76,1.396,2.525
		c-5.837-3.223-12.994-3.946-19.719-1.375c-12.055,4.64-18.095,18.188-13.451,30.26c2.098,5.503,6.074,9.746,10.921,12.3
		c-4.034,8.98-12.291,30.852-6.335,48.012c7.688,22.134,36.696,31.253,36.696,31.253l-65.121-6.175c0,0,1.81-18.505-18.509-20.832
		c0,0-8.545-1.163-20.049,3.667c-11.522,4.81-24.729,0.977-27.807-9.17c-3.08-10.147,2.132-21.872,13.848-21.902
		c11.726-0.055,15.16,4.695,19.128,7.626c3.95,2.932,28.457,12.952,33.236-13.569c4.806-26.533-30.412-27.582-53.135-19.271
		c-13.18,4.652-25.92,16.834-30.158,28.986c-3.23,5.283-4.881,22.104-7.097,25.789c-2.242,3.693-5.075-3.718-17.444-7.474
		c-12.367-3.748-57.931-11.746-63.463-12.457c-5.532-0.719-4.948-17.126-15.447-34.963c-10.48-17.824-38.024-21.018-39.209-20.967
		c-1.189,0.051,8.142,24.393,14.927,31.512c6.768,7.11,24.917,19.567,30.42,22.317c-19.8-4.133-43.533-7.978-47.741-8.384
		c-4.2-0.41-9.687,0.072-9.687,0.072s-2.952-15.054-19.39-13.599c-16.44,1.451-15.087,15.502-15.087,15.502
		s-6.582-26.618-34.087-31.842C325.862,106.007,256.199,99.569,249.308,50c-3.303,0.863-9.956,9.89-5.46,19.503
		c4.491,9.598,23.175,34.007,35.632,36.914c12.444,2.923,15.37,4.221,8.281,8.958c-7.076,4.742-12.664,13.366,9.944,16.428
		c-21.961,0.732-50.043,1.4-57.262,0.525c-7.221-0.867-18.366-6.708-28.213,0.313c-8.376,5.952-17.579,6.692-21.158,7.411
		c-0.249-1.755-0.668-3.494-1.328-5.211c-4.542-11.843-17.823-17.757-29.667-13.213c-11.839,4.551-17.752,17.828-13.201,29.671
		c4.535,11.839,17.816,17.748,29.65,13.206c8.4-3.219,13.811-10.833,14.632-19.199c6.501-1.62,18.759-4.576,20.594-4.399
		c2.538,0.25,8.879,3.075,7.706,6.349c-1.171,3.295,0.216,10.045,11.13,7.88c10.904-2.161,6.162-14.512,6.162-14.512l67.766,1.514
		c0,0-78.852,12.871-130.142,53.193c-51.308,40.344-94.303,113.917-70.992,193.6c1.218,4.107,2.567,8.071,4.047,11.899
		c-2.156-2.31-5.582-3.223-8.708-2.005c-4.129,1.578-6.196,6.214-4.614,10.346c1.585,4.141,6.229,6.201,10.349,4.61
		c3.249-1.248,5.199-4.382,5.132-7.677c20.404,47.382,60.865,73.323,105.261,85.314c-0.646,0-1.294,0-1.954,0.03
		c-0.186,0.135-0.351,0.275-0.498,0.423c-2.449-2.148-5.985-2.905-9.238-1.658c-4.683,1.793-7.005,7.042-5.216,11.716
		c1.803,4.674,7.034,7.013,11.722,5.215c2.563-0.981,4.429-3.02,5.273-5.418c3.706,0.736,32.73,7.373,37.032,36.173
		c0.867,4.64,6.958,0.491,2.901-12.415c-2.859-9.149-11.382-22.921-24.16-29.815c24.57,6.451,27.197,4.716,28.061-2.453
		c0.947-8.058-15.705-6.116-25.188-6.526c-9.453-0.419-31.245-3.388-24.998-8.214c6.243-4.826,12.677-13.362,13.654-7.673
		c0.972,5.706,8.89,11.573,14.406,3.79c5.507-7.783,6.078-13.675,6.078-13.675s8.256-8.02,6.585,0.305
		c-1.649,8.328,1.354,14.063,9.953,21.682c8.595,7.639,29.857,28.204,40.014,44.142c10.164,15.925,18.84,27.976,20.831,26.813
		c1.963-1.159,8.324-8.866,1.384-19.554c-6.929-10.697-5.042-11.019,5.436-6.945c10.455,4.073,19.27,11.222,24.118,6.937
		c4.83-4.276-5.809-11.941-20.43-15.231c-14.61-3.291-24.943-17.541-29.051-20.827c-1.818-1.464-3.908-4.458-5.926-8.189
		c15.473-5.241,25.684-11.822,31.592-17.194c4.683-4.259,15.819-12.059,20.7-15.434c1.473,0.901,3.189,1.59,5.136,2.022
		c18.603,4.2,28.788-11.455,16.377-32.188c-3.967-2.936-9.025-6.645-4.495-20.134c4.542-13.476,7.232-73.894-39.701-96.058
		c-43.017-20.32-63.315-8.882-63.315-8.882s-9.339-65.134,44.726-77.485c49.492-11.311,61.585,31.812,47.449,49.789
		c0,0-20.874,22.586-38.77,12.854c-17.904-9.715-13.498-34.088-0.609-37.412c12.884-3.329,24.965,7.021,19.88,13.827
		c-5.08,6.806-5.735,13.535,2.915,11.83c8.666-1.708,14.19-20.015,1.729-28.187c-12.443-8.176-43.105-8.959-42.488,23.196
		c2.038,19.038,17.469,29.723,39.946,23.923c22.455-5.794,42.34-32.044,24.282-61.124c-18.056-29.105-70.433-27.675-94.141,7.804
		c-19.28,28.847-13.231,62.545-13.231,62.545s-44.929,11.577-49.632,61.556c0.309,22.942,11.293,35.738,11.293,35.738
		s-17.625,1.505-1.662,18.852c-9.563,5.688-8.366,10.887,0.309,12.418c8.685,1.523,18.882,10.165,5.88,11.104
		c-12.989,0.943-41.756,10.363-26.927,34.219c-21.157-7.665-60.803-38.178-71.246-63.307c20.185,20.98,34.781,21.043,38.221,20.527
		c3.459-0.503,8.519,8.476,14.271,8.701c5.757,0.215,2.335-6.569,3.092-5.643c0.766,0.922,13.811,1.172,11.185-1.468
		c-2.631-2.623-4.197-10.93-9.243-11.416c-5.042-0.5-7.893-2.644-12.507,1.154c-4.615,3.803-15.718-0.85-15.718-0.85
		s-34.688-8.129-41.922-68.099c-2.029-24.305,2.826-46.414,2.826-46.414s6.383,35.589,36.554,36.169
		c3.756,17.168,19.017,10.511,20.477,0.618c1.472-9.86-9.919-13.18-17.516-6.616c-12.317-2.559-30.628-8.083-34.516-41.401
		c-0.287-9.204,5.068-25.823,11.227-35.069c6.171-9.246,18.391-30.133,36.604-42.788c-14.854,28.779-5.439,47.009-5.439,47.009
		s35.802-20.607,19.605-56.497c-2.145-2.416-3.334-2.356-3.334-2.356s48.448-37.226,119.322-51.89
		c-33.524,28.661-61.331,64.842-71.783,90.305c-7.461,1.65-14.961,15.862-5.613,19.148c9.365,3.291,21.086-2.017,16.378-16.403
		c4.293-16.217,21.204-36.486,21.204-36.486s4.031,17.888,14.423,12.279c10.396-5.609-0.828-15.861-6.052-17.904
		c6.213-13.307,34.096-45.072,74.854-59.094c11.073-3.836,11.073-3.836,11.073-3.836s-36.262,18.357-40.943,36.752
		c-3.532,11.886,4.014,9.395,5.663,11.581c1.658,2.212,7.021,9.86,7.978,12.321c0.943,2.47,0.139-10.164,5.68-19.985
		c5.541-9.809,23.646-19.588,35.311-20.84c11.666-1.239,18.045-5.714,23.746-17.211c5.122,10.173,28.67,17.731,33.648-1.984
		c24.874,2.593,57.782,8.176,57.782,8.176s-44.1,1.138-61.302,36.478c28.69,1.946,48.443-5.647,56.97-23.488
		c5.034-7.999,15.012-9.398,26.094-7.986c11.048,1.413,55.271,11.167,64.728,16.839c-6.479,2.077-56.36,15.553-79.328,28.432
		c-4.53,2.952-11.408,12.474-11.408,12.474s-7.739-14.847-21.453-6.336c-13.743,8.51-6.666,19.558,1.565,27.32
		c8.261,7.77,24.964,7.013,23.585-15.532c3.239-5.287,28.648-20.29,43.558-23.598c-18.344,22.824-24.579,46.676-24.819,64.978
		c26.063-18.501,40.385-43.432,31.367-65.87c20.413-9.047,32.062-10.295,32.062-10.295s-5.744,55.643,24.364,70.802
		c30.106,15.164,36.968-4.894,38.601-11.184c1.624-6.29-2.022-26.343-21.352-28.225c-19.348-1.878-30.362-12.63-24.508-23.788
		c5.828-11.137,17.189-11.048,22.358-8.176c5.135,2.889,17.309,26.136,36.215,29c18.916,2.854,23.975-17.702,23.975-17.702
		s34.041,4.348,59.784,4.987c-34.93,13.399-58.186,36.084-50.267,66.238c-21.082,12.545-9.195,45.635,15.768,36.858
		c24.965-8.777,12.673-37.661-7.663-37.937c-3.308-14.927-0.187-46.874,51.399-62.228c-6.023,12.824-0.127,18.666,8.738,16.471
		c8.511-2.098,6.658-14.677,5.559-15.4c3.358,0.186,63.742-2.297,63.742-2.297s4.095,13.814,18.34,3.481
		c6.023-4.331,18.933,0.829,8.646,8.823c-10.278,7.999-32.121,9.094-43.931,4.725c-11.792-4.369-31.622-1.214-36.918,0.812
		c-5.296,2.03-28.356,10.494-21.546,15.562c6.81,5.08,11.59,13.353-3.004,18.551c-14.609,5.207-26.274,27.498-18.111,49.861
		c3.182,9.306,12.537,12.588,13.578,8.958c1.023-3.629-0.17-38.394,34.599-60.642c27.765-18.349,46.832-17.165,63.134-18.97
		c16.318-1.807,47.449-6.07,48.465-47.75c0.177,12.076,11.538,22.684,12.604,22.282c1.049-0.402-28.729,21.145-15.346,58.104
		c13.383,36.959,50.428,41.748,62.372,41.219c0,0,21.343-1.019,43.931-12.981c0.127,3.177,0.017,6.218-0.458,8.849
		c-3.011,16.834-19.583,39.658-43.075,38.893c1.371-2.61,1.684-5.749,0.559-8.709c-2.106-5.456-8.248-8.189-13.713-6.087
		c-5.464,2.098-8.181,8.223-6.083,13.696c0.974,2.525,2.826,4.437,5.068,5.583c-0.237,0.088-0.466,0.211-0.677,0.304
		c36.224,12.313,57.304-16.788,56.906-15.739c-0.405,1.066,10.212,12.422,22.291,12.601c-41.68,1.011-45.943,32.15-47.754,48.46
		c-1.818,16.297-0.626,35.37-18.966,63.146c-22.249,34.761-57.018,33.568-60.646,34.595c-3.629,1.033-0.347,10.393,8.967,13.569
		c22.351,8.176,44.642-3.502,49.844-18.107c5.186-14.593,13.468-9.8,18.56-3.003c5.068,6.81,13.527-16.26,15.565-21.546
		c2.022-5.292,5.187-25.121,0.805-36.922c-4.365-11.797-3.274-33.635,4.729-43.931c7.994-10.286,13.146,2.64,8.823,8.637
		c-10.337,14.254,3.477,18.349,3.477,18.349s-2.486,60.388-2.292,63.747c-0.728-1.104-13.308-2.944-15.405,5.562
		c-2.199,8.866,3.654,14.753,16.471,8.743c-15.345,51.578-47.297,54.704-62.237,51.4c-0.27-20.35-29.15-32.641-37.924-7.673
		c-8.771,24.964,24.313,36.846,36.851,15.76c30.149,7.927,52.847-15.337,66.246-50.258c0.635,25.746,4.982,59.787,4.982,59.787
		s-20.557,5.051-17.705,23.97c2.868,18.903,26.122,31.076,29.007,36.22c2.877,5.151,2.961,16.525-8.188,22.358
		c-11.15,5.842-21.902-5.164-23.78-24.508c-1.887-19.338-21.937-22.984-28.222-21.36c-6.285,1.633-26.343,8.51-11.183,38.605
		c15.159,30.107,70.798,24.359,70.798,24.359s-1.244,11.657-10.296,32.066c-22.435-9.019-47.365,5.295-65.874,31.371
		c18.315-0.241,42.154-6.479,64.986-24.828c-3.316,14.914-18.314,40.322-23.603,43.555c-22.544-1.376-23.289,15.336-15.54,23.593
		c7.774,8.234,18.822,15.307,27.324,1.574c8.502-13.722-6.328-21.458-6.328-21.458s9.509-6.873,12.47-11.413
		c12.876-22.968,26.36-72.844,28.433-79.328c5.676,9.457,15.422,53.68,16.843,64.736c1.412,11.087,0.017,21.056-7.994,26.089
		c-17.833,8.527-25.429,28.281-23.467,56.967c35.318-17.206,36.46-61.289,36.46-61.289s5.593,32.898,8.181,57.77
		c-19.728,4.982-12.164,28.534-1.988,33.652c-11.495,5.701-15.972,12.079-17.206,23.745c-1.252,11.667-11.039,29.778-20.844,35.311
		c-9.821,5.537-22.452,4.732-19.99,5.676c2.462,0.969,10.117,6.323,12.325,7.982c2.183,1.645-0.305,9.196,11.581,5.663
		c18.383-4.687,36.757-40.944,36.757-40.944s0,0-3.833,11.07c-14.033,40.762-45.799,68.648-59.105,74.861
		c-2.039-5.228-12.301-16.448-17.9-6.057c-5.609,10.393,12.274,14.424,12.274,14.424s-20.27,16.911-36.486,21.203
		c-14.373-4.707-19.685,7.01-16.394,16.378c3.29,9.348,17.494,1.845,19.144-5.613c25.471-10.451,61.636-38.263,90.289-71.783
		c-14.661,70.87-51.866,119.322-51.866,119.322s0.051-1.193-2.36-3.329c-35.886-16.196-56.501,19.597-56.501,19.597
		s18.238,9.42,47.026-5.436c-12.672,18.213-33.56,30.434-42.805,36.596c-9.246,6.163-25.869,11.523-35.073,11.235
		c-33.314-3.892-38.838-22.194-41.393-34.511c6.556-7.602,3.248-18.992-6.624-17.52c-9.881,1.458-16.53,16.724,0.635,20.476
		c0.566,30.171,36.147,36.55,36.147,36.55s-22.096,4.855-46.409,2.824c-59.961-7.228-68.099-41.916-68.099-41.916
		s-4.636-11.107-0.847-15.718c3.799-4.619,1.659-7.466,1.167-12.503c-0.498-5.051-8.806-6.612-11.437-9.246
		c-2.622-2.631-2.377,10.418-1.455,11.183c0.922,0.762-5.862-2.66-5.643,3.084c0.212,5.761,9.195,10.819,8.705,14.274
		c-0.524,3.443-0.466,18.041,20.522,38.226c-25.133-10.443-55.646-50.089-63.312-71.242c23.864,14.825,33.289-13.941,34.22-26.936
		c0.939-12.998,9.576-2.804,11.099,5.879c1.54,8.681,6.734,9.872,12.418,0.313c17.352,15.972,18.848-1.661,18.848-1.661
		s12.8,10.983,35.751,11.288c49.979-4.703,61.56-49.628,61.56-49.628s33.687,6.05,62.542-13.226
		c35.479-23.716,36.908-76.09,7.807-94.146c-29.083-18.052-55.333,1.827-61.128,24.292c-5.803,22.468,4.881,37.898,23.924,39.938
		c32.155,0.608,31.368-30.044,23.196-42.488c-8.181-12.456-26.486-6.937-28.195,1.722c-1.693,8.653,5.032,8.002,11.843,2.918
		c6.802-5.071,17.147,7,13.814,19.884c-3.325,12.889-27.688,17.3-37.416-0.608c-9.72-17.9,12.866-38.762,12.866-38.762
		c17.985-14.152,61.095-2.048,49.784,47.441c-12.351,54.064-77.48,44.726-77.48,44.726s11.438-20.303-8.891-63.32
		c-22.164-46.93-82.574-44.239-96.042-39.696c-13.5,4.526-17.223-0.528-20.142-4.5c-20.733-12.406-36.393-2.22-32.196,16.382
		c0.439,1.955,1.125,3.662,2.021,5.136c-3.375,4.885-11.167,16.009-15.431,20.69c-5.371,5.918-11.953,16.128-17.197,31.598
		c-3.723-2.014-6.717-4.096-8.189-5.927c-3.273-4.095-17.536-14.436-20.827-29.046c-3.282-14.626-10.938-25.264-15.235-20.43
		c-4.28,4.839,2.876,13.649,6.937,24.118c4.077,10.474,3.756,12.373-6.937,5.436c-10.692-6.937-18.392-0.583-19.55,1.392
		c-1.168,1.984,10.878,10.659,26.808,20.823c15.938,10.16,36.503,31.418,44.134,40.014c7.631,8.6,13.365,11.598,21.689,9.957
		c8.333-1.68,0.306,6.581,0.306,6.581s-5.889,0.57-13.679,6.078c-7.783,5.512-1.913,13.438,3.798,14.411
		c5.685,0.973-2.852,7.401-7.673,13.646c-4.83,6.242-7.792-15.541-8.224-25.007c-0.406-9.471,1.54-26.128-6.521-25.176
		c-7.166,0.859-8.9,3.489-2.454,28.06c-6.894-12.782-20.666-21.301-29.811-24.159c-12.901-4.062-17.046,2.034-12.419,2.9
		c28.796,4.302,35.438,33.327,36.173,37.028c-2.402,0.846-4.424,2.715-5.414,5.274c-1.802,4.69,0.533,9.923,5.211,11.726
		c4.67,1.788,9.915-0.538,11.717-5.217c1.252-3.257,0.49-6.788-1.658-9.245c0.152-0.144,0.287-0.309,0.423-0.49
		c0.034-0.657,0.034-1.309,0.034-1.964c11.986,44.4,37.924,84.862,85.306,105.271c-3.291-0.067-6.429,1.883-7.673,5.126
		c-1.591,4.125,0.475,8.769,4.61,10.354c4.137,1.582,8.765-0.486,10.362-4.609c1.201-3.131,0.297-6.561-2.021-8.714
		c3.824,1.48,7.792,2.829,11.903,4.048c79.68,23.319,153.261-19.686,193.604-70.993c40.318-51.285,53.185-130.132,53.185-130.132
		l1.506,67.752c0,0-12.334-4.736-14.499,6.171c-2.175,10.904,4.593,12.296,7.875,11.125c3.273-1.176,6.1,5.174,6.354,7.711
		c0.169,1.831-2.783,14.085-4.399,20.591c-8.366,0.819-15.98,6.229-19.202,14.635c-4.544,11.835,1.369,25.115,13.205,29.65
		c11.852,4.543,25.124-1.366,29.659-13.205c4.56-11.844-1.354-25.126-13.206-29.677c-1.717-0.651-3.46-1.069-5.211-1.319
		c0.719-3.578,1.455-12.782,7.419-21.153c7.013-9.851,1.185-20.997,0.305-28.216c-0.872-7.221-0.203-35.303,0.524-57.264
		c3.07,22.617,11.691,17.018,16.429,9.949c4.745-7.094,6.048-4.171,8.967,8.273c2.901,12.461,27.315,31.144,36.909,35.636
		c9.609,4.492,18.637-2.158,19.508-5.466C1083.607,960.63,1077.152,890.971,1071.934,863.456z M329.441,320.794
		c30.307,18.425,31.583,68.036,27.51,94.188c-6.095-27.722-28.817-57.258-55.553-65.201c-36.626-12.364-36.001-40.382-36.001-40.382
		S299.139,302.356,329.441,320.794z M221.769,398.943c0,0-26.208-42.966,12.85-76.166c14.056-11.881,20.836-10.029,20.836-10.029
		s8.036,32.536,41.325,41.202c29.16,7.44,52.881,42.852,53.967,69.952c-10.093,3.24-14.335,20.421-6.967,29.858
		c-16.774,19.977-46.285,28.454-51.265,29.786c-1.298-3.029-2.452-6.201-3.388-9.272c-2.935-9.8-5.781-17.198-17.126-19.326
		c-11.336-2.124-17.596-11.065-9.678-10.46c7.927,0.605,20.807-2.724,22.033-4.805c1.218-2.102-7.702-6.361-10.626-7.668
		c-2.936-1.299,10.394-5.609,14.378-9.965c3.992-4.37,4.297-16.23,0.727-21.331c-3.591-5.093-9.766-9.606-10.739-4.776
		c-0.985,4.831-3.273,12.583-6.442,8.54c-3.171-4.048-12.422-4.94-16.105,3.35c-3.702,8.303-13.244,22.481-12.601,7.262
		c0.634-15.21-0.479-15.997-8.045-16.733C227.33,397.615,221.769,398.943,221.769,398.943z M871.73,257.5
		c-3.782-25.658,20.76-43.99,38.559-47.175c17.807-3.189,51.713,6.044,52.525,42.982c0.363,18.878-28.128,34.262-46.164,24.186
		c-18.035-10.067-16.191-30.61-11.15-35.391c5.051-4.758,11.041-7.055,11.641-4.454c0.263,1.159,0.517,3.443,0.152,8.849
		c-0.347,5.389,4.577,24.549,24.372,12.893c19.813-11.653-7.579-49.294-35.513-29.266c-27.926,20.028-1.472,70.993,39.158,54.581
		c40.666-16.416,16.929-60.321,14.433-62.609c-2.504-2.284-17.739-25.159-53.253-16.39c2.826-6.324,2.411-6.874,2.251-6.92
		c1.911-0.034,70.323-1.383,117.215-39.345c0.254,21.77-3.299,35.682-5.186,39.235c-1.887,3.545-8.494,5.279-12.436,10.837
		c-3.926,5.558-20.059,19.44-29.295,13.273c5.193-11.717-8.172-19.123-14.407-14.305c-6.243,4.821-4.322,23.517,23.695,21.669
		c15.295-0.216,31.342-18.51,31.342-18.51s-8.062,65.43-60.324,84.278C907.075,314.771,875.521,283.166,871.73,257.5z
		 M977.482,310.325c1.464-5.955,2.005-11.306,1.938-16.17c2.156-1.333,4.305-2.779,6.438-4.336
		c-1.295,10.667-1.455,17.663-1.464,18.255C984.352,307.918,983.793,307.508,977.482,310.325z M862.392,887.379
		c18.425,30.302,11.386,64.042,11.386,64.042s-28.009,0.635-40.385-35.999c-7.944-26.736-37.477-49.458-65.198-55.555
		C794.343,855.795,843.949,857.073,862.392,887.379z M708.901,927.692c-3.071-0.931-6.243-2.09-9.264-3.383
		c1.312-4.983,9.806-34.49,29.777-51.266c9.434,7.369,26.615,3.122,29.854-6.966c27.112,1.087,62.517,24.804,69.951,53.971
		c8.68,33.28,41.207,41.321,41.207,41.321s1.853,6.775-10.033,20.827c-33.203,39.07-76.16,12.858-76.16,12.858
		s1.327-5.559,0.583-13.134c-0.728-7.563-1.531-8.68-16.733-8.049c-15.227,0.644-1.04-8.896,7.259-12.592
		c8.29-3.688,7.402-12.936,3.351-16.111c-4.036-3.169,3.713-5.456,8.544-6.438c4.83-0.981,0.313-7.152-4.771-10.744
		c-5.109-3.569-16.97-3.266-21.335,0.724s-8.671,17.316-9.966,14.386c-1.312-2.928-5.565-11.848-7.664-10.626
		c-2.09,1.227-5.414,14.103-4.813,22.029c0.608,7.918-8.333,1.657-10.456-9.683C726.108,933.482,718.706,930.637,708.901,927.692z"
		/>
</g>
</svg>
